HIERARCHY
ROOT Root
{
  OFFSET 0.0 0.0 0.0
  CHANNELS 6 Xposition Yposition Zposition Zrotation Yrotation Xrotation
  JOINT Hips
  {
    OFFSET 0.0 100.0 0.0
    CHANNELS 6 Xposition Yposition Zposition Zrotation Yrotation Xrotation
    JOINT Spine1
    {
      OFFSET -0.013727 5.003763 -0.053727
      CHANNELS 3 Zrotation Yrotation Xrotation
      JOINT Spine2
      {
        OFFSET -0.0 7.125301 -0.029825
        CHANNELS 3 Zrotation Yrotation Xrotation
        JOINT Chest
        {
          OFFSET -1e-06 7.550063 -0.815971
          CHANNELS 3 Zrotation Yrotation Xrotation
          JOINT Neck1
          {
            OFFSET -0.181677 26.311295 -0.553348
            CHANNELS 3 Zrotation Yrotation Xrotation
            JOINT Neck2
            {
              OFFSET -3e-06 7.709397 2.302585
              CHANNELS 3 Zrotation Yrotation Xrotation
              JOINT Head
              {
                OFFSET -5e-06 6.128916 1.953709
                CHANNELS 3 Zrotation Yrotation Xrotation
                JOINT HeadEnd
                {
                  OFFSET 0.003598 16.065403 -1.835379
                  CHANNELS 3 Zrotation Yrotation Xrotation
                }
                JOINT Jaw
                {
                  OFFSET 0.002637 0.475592 3.094941
                  CHANNELS 3 Zrotation Yrotation Xrotation
                }
                JOINT LeftEye
                {
                  OFFSET 3.206381 5.380205 7.586883
                  CHANNELS 3 Zrotation Yrotation Xrotation
                }
                JOINT RightEye
                {
                  OFFSET -3.22244 5.361869 7.558234
                  CHANNELS 3 Zrotation Yrotation Xrotation
                }
              }
            }
          }
          JOINT LeftShoulder
          {
            OFFSET 1.621652 23.237164 5.113413
            CHANNELS 3 Zrotation Yrotation Xrotation
            JOINT LeftArm
            {
              OFFSET 14.919846 2e-06 -5.502326
              CHANNELS 3 Zrotation Yrotation Xrotation
              JOINT LeftForeArm
              {
                OFFSET 28.739307 0.0 -0.002588
                CHANNELS 3 Zrotation Yrotation Xrotation
                JOINT LeftHand
                {
                  OFFSET 27.093981 -1e-06 0.002609
                  CHANNELS 3 Zrotation Yrotation Xrotation
                  JOINT LeftHandThumb1
                  {
                    OFFSET 2.276482 -1.392045 3.191413
                    CHANNELS 3 Zrotation Yrotation Xrotation
                    JOINT LeftHandThumb2
                    {
                      OFFSET 4.012836 -1.828127 1.641654
                      CHANNELS 3 Zrotation Yrotation Xrotation
                      JOINT LeftHandThumb3
                      {
                        OFFSET 2.798515 0.0 -3e-06
                        CHANNELS 3 Zrotation Yrotation Xrotation
                        JOINT LeftHandThumbEnd
                        {
                          OFFSET 3.180793 -4e-06 4e-06
                          CHANNELS 3 Zrotation Yrotation Xrotation
                        }
                      }
                    }
                  }
                  JOINT LeftHandIndex1
                  {
                    OFFSET 3.247555 -0.531998 2.296169
                    CHANNELS 3 Zrotation Yrotation Xrotation
                    JOINT LeftHandIndex2
                    {
                      OFFSET 6.364578 0.01206 0.1786
                      CHANNELS 3 Zrotation Yrotation Xrotation
                      JOINT LeftHandIndex3
                      {
                        OFFSET 3.662364 0.0 0.0
                        CHANNELS 3 Zrotation Yrotation Xrotation
                        JOINT LeftHandIndex4
                        {
                          OFFSET 2.329242 4e-06 4e-06
                          CHANNELS 3 Zrotation Yrotation Xrotation
                          JOINT LeftHandIndexEnd
                          {
                            OFFSET 2.759615 -0.180537 -0.113024
                            CHANNELS 3 Zrotation Yrotation Xrotation
                          }
                        }
                      }
                    }
                  }
                  JOINT LeftHandMiddle1
                  {
                    OFFSET 3.163495 0.240981 1.000332
                    CHANNELS 3 Zrotation Yrotation Xrotation
                    JOINT LeftHandMiddle2
                    {
                      OFFSET 6.19078 -0.259278 -1.002548
                      CHANNELS 3 Zrotation Yrotation Xrotation
                      JOINT LeftHandMiddle3
                      {
                        OFFSET 4.35652 -4e-06 -1e-06
                        CHANNELS 3 Zrotation Yrotation Xrotation
                        JOINT LeftHandMiddle4
                        {
                          OFFSET 2.996877 -8e-06 0.0
                          CHANNELS 3 Zrotation Yrotation Xrotation
                          JOINT LeftHandMiddleEnd
                          {
                            OFFSET 2.304287 -0.294569 -0.031741
                            CHANNELS 3 Zrotation Yrotation Xrotation
                          }
                        }
                      }
                    }
                  }
                  JOINT LeftHandRing1
                  {
                    OFFSET 2.882643 -0.053652 -0.322543
                    CHANNELS 3 Zrotation Yrotation Xrotation
                    JOINT LeftHandRing2
                    {
                      OFFSET 5.854541 -0.486202 -1.373841
                      CHANNELS 3 Zrotation Yrotation Xrotation
                      JOINT LeftHandRing3
                      {
                        OFFSET 4.350578 0.0 3e-06
                        CHANNELS 3 Zrotation Yrotation Xrotation
                        JOINT LeftHandRing4
                        {
                          OFFSET 2.651321 7e-06 2e-06
                          CHANNELS 3 Zrotation Yrotation Xrotation
                          JOINT LeftHandRingEnd
                          {
                            OFFSET 1.936105 0.077687 -7.1e-05
                            CHANNELS 3 Zrotation Yrotation Xrotation
                          }
                        }
                      }
                    }
                  }
                  JOINT LeftHandPinky1
                  {
                    OFFSET 2.8655 -0.310005 -1.600378
                    CHANNELS 3 Zrotation Yrotation Xrotation
                    JOINT LeftHandPinky2
                    {
                      OFFSET 5.087849 -1.331141 -1.77123
                      CHANNELS 3 Zrotation Yrotation Xrotation
                      JOINT LeftHandPinky3
                      {
                        OFFSET 3.070974 4e-06 0.0
                        CHANNELS 3 Zrotation Yrotation Xrotation
                        JOINT LeftHandPinky4
                        {
                          OFFSET 1.549672 0.0 1e-06
                          CHANNELS 3 Zrotation Yrotation Xrotation
                          JOINT LeftHandPinkyEnd
                          {
                            OFFSET 1.944893 -0.157802 0.057219
                            CHANNELS 3 Zrotation Yrotation Xrotation
                          }
                        }
                      }
                    }
                  }
                }
              }
            }
          }
          JOINT RightShoulder
          {
            OFFSET -1.380118 23.180309 5.214158
            CHANNELS 3 Zrotation Yrotation Xrotation
            JOINT RightArm
            {
              OFFSET -15.037196 1.2e-05 -5.545604
              CHANNELS 3 Zrotation Yrotation Xrotation
              JOINT RightForeArm
              {
                OFFSET -28.736639 2e-06 -0.002597
                CHANNELS 3 Zrotation Yrotation Xrotation
                JOINT RightHand
                {
                  OFFSET -27.133619 -0.0 0.002613
                  CHANNELS 3 Zrotation Yrotation Xrotation
                  JOINT RightHandThumb1
                  {
                    OFFSET -2.274032 -1.383988 3.163127
                    CHANNELS 3 Zrotation Yrotation Xrotation
                    JOINT RightHandThumb2
                    {
                      OFFSET -4.011429 -1.827466 1.640914
                      CHANNELS 3 Zrotation Yrotation Xrotation
                      JOINT RightHandThumb3
                      {
                        OFFSET -2.794935 -4e-06 -3e-06
                        CHANNELS 3 Zrotation Yrotation Xrotation
                        JOINT RightHandThumbEnd
                        {
                          OFFSET -3.183852 4e-06 1e-06
                          CHANNELS 3 Zrotation Yrotation Xrotation
                        }
                      }
                    }
                  }
                  JOINT RightHandIndex1
                  {
                    OFFSET -3.253266 -0.520057 2.282866
                    CHANNELS 3 Zrotation Yrotation Xrotation
                    JOINT RightHandIndex2
                    {
                      OFFSET -6.341917 0.012471 0.178266
                      CHANNELS 3 Zrotation Yrotation Xrotation
                      JOINT RightHandIndex3
                      {
                        OFFSET -3.654871 -8e-06 -0.0
                        CHANNELS 3 Zrotation Yrotation Xrotation
                        JOINT RightHandIndex4
                        {
                          OFFSET -2.327586 0.0 1e-06
                          CHANNELS 3 Zrotation Yrotation Xrotation
                          JOINT RightHandIndexEnd
                          {
                            OFFSET -2.76179 -0.180656 -0.113078
                            CHANNELS 3 Zrotation Yrotation Xrotation
                          }
                        }
                      }
                    }
                  }
                  JOINT RightHandMiddle1
                  {
                    OFFSET -3.168106 0.246593 1.00103
                    CHANNELS 3 Zrotation Yrotation Xrotation
                    JOINT RightHandMiddle2
                    {
                      OFFSET -6.180828 -0.258836 -1.000895
                      CHANNELS 3 Zrotation Yrotation Xrotation
                      JOINT RightHandMiddle3
                      {
                        OFFSET -4.348901 0.0 -0.0
                        CHANNELS 3 Zrotation Yrotation Xrotation
                        JOINT RightHandMiddle4
                        {
                          OFFSET -3.00024 -4e-06 -2e-06
                          CHANNELS 3 Zrotation Yrotation Xrotation
                          JOINT RightHandMiddleEnd
                          {
                            OFFSET -2.30252 -0.29437 -0.031706
                            CHANNELS 3 Zrotation Yrotation Xrotation
                          }
                        }
                      }
                    }
                  }
                  JOINT RightHandRing1
                  {
                    OFFSET -2.88569 -0.067952 -0.308858
                    CHANNELS 3 Zrotation Yrotation Xrotation
                    JOINT RightHandRing2
                    {
                      OFFSET -5.854198 -0.48613 -1.373731
                      CHANNELS 3 Zrotation Yrotation Xrotation
                      JOINT RightHandRing3
                      {
                        OFFSET -4.33881 -4e-06 -0.0
                        CHANNELS 3 Zrotation Yrotation Xrotation
                        JOINT RightHandRing4
                        {
                          OFFSET -2.654903 -4e-06 4e-06
                          CHANNELS 3 Zrotation Yrotation Xrotation
                          JOINT RightHandRingEnd
                          {
                            OFFSET -1.933568 0.077527 -5.2e-05
                            CHANNELS 3 Zrotation Yrotation Xrotation
                          }
                        }
                      }
                    }
                  }
                  JOINT RightHandPinky1
                  {
                    OFFSET -2.866425 -0.342796 -1.584145
                    CHANNELS 3 Zrotation Yrotation Xrotation
                    JOINT RightHandPinky2
                    {
                      OFFSET -5.091371 -1.332055 -1.772385
                      CHANNELS 3 Zrotation Yrotation Xrotation
                      JOINT RightHandPinky3
                      {
                        OFFSET -3.062664 -4e-06 1e-06
                        CHANNELS 3 Zrotation Yrotation Xrotation
                        JOINT RightHandPinky4
                        {
                          OFFSET -1.546529 4e-06 -2e-06
                          CHANNELS 3 Zrotation Yrotation Xrotation
                          JOINT RightHandPinkyEnd
                          {
                            OFFSET -1.945119 -0.157718 0.057211
                            CHANNELS 3 Zrotation Yrotation Xrotation
                          }
                        }
                      }
                    }
                  }
                }
              }
            }
          }
        }
      }
    }
    JOINT LeftLeg
    {
      OFFSET 10.043214 -8.434526 2.595655
      CHANNELS 3 Zrotation Yrotation Xrotation
      JOINT LeftShin
      {
        OFFSET -1e-06 -43.221752 -0.802913
        CHANNELS 3 Zrotation Yrotation Xrotation
        JOINT LeftFoot
        {
          OFFSET 1e-06 -42.155094 -3.481523
          CHANNELS 3 Zrotation Yrotation Xrotation
          JOINT LeftToeBase
          {
            OFFSET 0.0 -5.059472 13.231529
            CHANNELS 3 Zrotation Yrotation Xrotation
            JOINT LeftToeEnd
            {
              OFFSET -0.009607 -1.647619 6.513017
              CHANNELS 3 Zrotation Yrotation Xrotation
            }
          }
        }
      }
    }
    JOINT RightLeg
    {
      OFFSET -10.047278 -8.29526 2.620317
      CHANNELS 3 Zrotation Yrotation Xrotation
      JOINT RightShin
      {
        OFFSET 1e-06 -43.362206 -0.805556
        CHANNELS 3 Zrotation Yrotation Xrotation
        JOINT RightFoot
        {
          OFFSET 2e-06 -42.117393 -3.478398
          CHANNELS 3 Zrotation Yrotation Xrotation
          JOINT RightToeBase
          {
            OFFSET -0.0 -5.079609 13.284196
            CHANNELS 3 Zrotation Yrotation Xrotation
            JOINT RightToeEnd
            {
              OFFSET 0.009532 -1.634378 6.460591
              CHANNELS 3 Zrotation Yrotation Xrotation
            }
          }
        }
      }
    }
  }
}
MOTION
Frames: 4
Frame Time: 0.03333333333333333
0.0 0.0 0.0 0.0 -0.0 0.0 -21.916052 25.757593 296.190857 -47.571556 33.639515 -52.919125 -0.841557 -1.168462 14.263534 -1.113385 -2.64667 2.472813 -3.408075 -4.447637 26.824284 19.613613 -9.448438 11.093469 -3.490517 -9.97856 -2.551553 3.997948 -11.485615 -4.022647 7.7e-05 -2.3e-05 6e-06 -0.155805 -0.207333 0.009983 0.614187 -3.775537 -10.236559 -0.911134 3.330901 -10.138067 15.38691 -32.968468 8.934267 26.577694 -51.589985 -27.746431 4.126437 -58.037628 -2.757317 25.551853 -20.409468 -5.418 -5.88211 9.861286 0.70259 -10.936877 -0.360576 7.156209 4e-06 8.774826 -2e-06 -17.143921 16.734772 4.771252 -1.844032 2.498506 -2.507279 -10.163605 4.678945 4.621109 -20.976038 -3e-06 1e-06 -21.226301 2.451697 -3.594002 0.0 -7e-06 0.0 -1.362683 2.240801 -0.746323 -21.334927 0.584909 3.008324 -13.821221 -2e-06 -0.0 -23.887184 -0.249079 -0.839485 -57.694527 2.595937 0.118455 -0.294023 1.679689 0.833255 -14.218218 0.093212 1.300579 -34.212074 -0.287566 0.967169 -20.03323 0.964538 1.212843 -1e-06 1e-06 -0.0 -3.440388 0.788234 0.501657 -15.928198 -3.16731 2.999709 -6.33883 -1e-06 1e-06 -18.123457 3.648182 -4.905673 -4e-06 2e-06 -2e-06 -1.428197 16.988104 4.669654 19.16923 35.714947 -38.6045 2.660295 82.779495 -2.07514 -11.893808 -6.685363 -13.248856 2.243542 -5.255037 -3.18016 14.282896 -0.826596 6.952507 -1e-06 -12.690608 0.0 16.50964 -18.653299 3.139699 1.665667 -1.955924 -2.878301 4.7278 -4.170588 4.993927 11.020531 0.0 -0.0 12.109058 -3.735719 -2.866786 0.0 1e-06 1e-06 1.291986 -1.92855 -1.498089 14.800132 0.567465 3.865611 14.242577 -1.341737 -6.660662 19.631973 0.143923 -0.648247 51.020535 -2.081372 -6.291177 0.353029 -1.511149 -0.031939 20.222797 3.684307 2.316633 18.787277 2e-06 1e-06 10.751631 -0.479869 1.397907 -1e-06 0.0 2e-06 3.273808 0.305947 -0.580112 21.486816 11.830374 2.266137 8.16293 1e-06 1e-06 18.399088 -3.798989 -4.940577 3e-06 0.0 -1e-06 -11.623688 14.201755 -63.677753 6.509269 3.195312 157.663055 -18.49674 -29.101969 25.472519 -0.048186 -1.28287 -1.148484 -0.0 -0.0 2e-06 -25.454617 -7.167659 -58.774754 3.395033 2.200963 64.631981 10.827737 -14.084812 -14.048674 -2.138409 1.051432 -2.827173 0.0 -1e-06 0.0 
0.0 0.0 0.0 0.0 -0.0 0.0 -23.740839 29.173929 304.37854 -43.002865 40.994213 -47.024662 -0.969018 -1.49505 14.10522 -1.057137 -2.918492 2.35028 -3.864068 -4.746 26.326395 19.840519 -8.395597 6.689838 -3.53566 -12.401552 -2.691917 4.480389 -13.442329 -5.61906 7.6e-05 -2.2e-05 6e-06 -0.107755 -0.263954 0.013554 0.697651 -3.867433 -10.428972 -0.900015 3.306914 -10.325069 17.604101 -33.409 7.141407 32.460339 -51.318218 -33.623623 2.741478 -52.618118 -1.10154 28.148577 -21.378183 1.48492 -5.882107 9.861286 0.70259 -10.936878 -0.360578 7.15621 2e-06 8.77483 -1e-06 -16.677811 16.522232 5.040556 -1.844034 2.498506 -2.507279 -10.163608 4.678944 4.621111 -20.976038 -6e-06 4e-06 -21.226301 2.451695 -3.593999 1e-06 -5e-06 -1e-06 -1.362682 2.2408 -0.746322 -21.33493 0.584907 3.008326 -13.821225 -7e-06 3e-06 -23.887188 -0.249084 -0.839479 -57.490482 2.729676 0.634375 -0.294023 1.679688 0.833256 -14.218219 0.093213 1.300581 -34.212074 -0.28757 0.967175 -20.033228 0.964535 1.212847 -0.0 1e-06 -0.0 -3.440389 0.788234 0.501655 -15.928201 -3.167313 2.999709 -6.338832 -2e-06 2e-06 -18.123461 3.64818 -4.905672 -4e-06 3e-06 -2e-06 -2.439023 16.656658 4.899318 13.11011 43.038319 -36.161686 -5.173505 85.231781 -9.469234 -13.159142 -1.825863 -12.97572 2.243544 -5.255041 -3.180161 14.282905 -0.826597 6.952513 0.0 -12.690612 -1e-06 16.658882 -18.50248 2.898418 1.665667 -1.955924 -2.878301 4.727805 -4.17059 4.99393 11.020536 2e-06 1e-06 12.109061 -3.73572 -2.866785 0.0 0.0 -1e-06 1.291986 -1.928551 -1.498092 14.800142 0.567466 3.865616 14.242582 -1.34174 -6.660662 19.631987 0.14392 -0.648243 50.608047 -2.362192 -6.431031 0.353029 -1.511152 -0.031941 20.222811 3.684307 2.316638 18.787289 -1e-06 2e-06 10.751638 -0.479871 1.397908 -2e-06 1e-06 0.0 3.273809 0.305947 -0.580111 21.486834 11.830377 2.266143 8.162935 -0.0 2e-06 18.399099 -3.798991 -4.940578 2e-06 0.0 -1e-06 -5.130545 14.921585 -60.848053 4.238829 2.335127 157.376114 -27.281807 -33.886341 38.501106 0.037071 -1.273033 0.555038 -1e-06 0.0 2e-06 -28.396875 -5.761971 -63.191559 3.120404 1.844832 68.571648 8.584113 -15.075066 -11.332582 -2.175513 0.876246 -2.984721 1e-06 -1e-06 -0.0 
0.0 0.0 0.0 0.0 -0.0 0.0 -24.864391 33.227402 312.411224 -36.806648 46.802765 -39.999969 -0.540276 -1.854706 13.362924 -1.085414 -3.105019 1.926426 -4.168515 -4.864009 25.200937 18.238916 -6.791787 3.376925 -3.559078 -14.863069 -2.893488 5.137582 -15.097336 -6.97096 7.8e-05 -2.2e-05 6e-06 -0.03723 -0.30527 -0.004729 0.794604 -3.906417 -10.554224 -0.85875 3.264586 -10.43152 18.792034 -33.145782 5.839282 36.902855 -52.887215 -39.77087 3.251108 -48.64896 -1.028087 29.636881 -20.833284 10.432251 -5.882106 9.861283 0.702589 -10.936872 -0.360577 7.156209 1e-06 8.774824 -2e-06 -16.715092 16.588322 4.706991 -1.844033 2.498504 -2.507281 -10.163602 4.678944 4.621109 -20.976028 -4e-06 1e-06 -21.22629 2.451693 -3.594 0.0 -6e-06 -0.0 -1.362681 2.2408 -0.746324 -21.334917 0.584908 3.008324 -13.821217 -3e-06 2e-06 -23.887175 -0.24908 -0.839482 -57.677643 2.850014 0.491516 -0.294024 1.679686 0.833255 -14.218208 0.093215 1.300582 -34.212048 -0.287565 0.967173 -20.033215 0.964536 1.212846 -1e-06 -0.0 -1e-06 -3.440388 0.788234 0.501657 -15.928189 -3.167311 2.99971 -6.338829 -1e-06 1e-06 -18.123447 3.648181 -4.905669 -4e-06 -1e-06 -2e-06 -3.49676 17.013119 5.75837 7.702713 50.454773 -32.195381 -11.619704 85.375595 -15.767482 -11.994305 3.267344 -10.51661 2.243542 -5.255036 -3.180156 14.282887 -0.826597 6.952499 0.0 -12.6906 1e-06 16.58087 -18.392626 2.936846 1.665666 -1.955922 -2.878298 4.727798 -4.170588 4.993924 11.020526 0.0 -2e-06 12.109052 -3.735717 -2.866785 -0.0 -0.0 0.0 1.291986 -1.928549 -1.498089 14.800125 0.567465 3.865605 14.242568 -1.341738 -6.660659 19.631966 0.143925 -0.648248 50.739902 -2.450825 -6.312094 0.353029 -1.51115 -0.031941 20.222786 3.684306 2.316627 18.78727 3e-06 -4e-06 10.751627 -0.479869 1.397903 -1e-06 0.0 0.0 3.273806 0.305946 -0.58011 21.486805 11.830368 2.26613 8.162926 -0.0 -1e-06 18.399078 -3.798985 -4.940577 2e-06 0.0 -1e-06 0.936896 14.164251 -54.044968 1.969761 1.718921 152.760254 -36.446003 -37.644604 50.436676 0.168149 -1.133903 1.578053 -0.0 0.0 -0.0 -30.867767 -5.971334 -65.76075 3.058179 1.680486 71.868347 9.297451 -13.920021 -7.015785 -2.02128 0.728548 -2.763049 0.0 -0.0 -2e-06 
0.0 0.0 0.0 0.0 -0.0 0.0 -25.208441 37.485851 319.794373 -29.738514 50.029301 -32.640598 0.5803 -2.074172 12.330117 -1.10306 -2.98842 1.326152 -4.212198 -4.650603 23.549189 14.941091 -5.052846 1.522248 -3.602887 -16.681 -2.957052 5.708731 -16.498207 -8.213367 7.7e-05 -2.2e-05 6e-06 0.032245 -0.292108 -0.039715 0.889981 -3.869337 -10.613333 -0.818555 3.255881 -10.491486 18.695974 -31.599468 4.948536 38.636345 -55.749832 -46.099644 4.914089 -50.088154 -1.759658 29.375854 -18.770557 17.378859 -5.882114 9.861294 0.702587 -10.936883 -0.360577 7.156212 1e-06 8.774833 -1e-06 -16.727724 16.812859 4.324464 -1.844035 2.498507 -2.507282 -10.16361 4.678946 4.621113 -20.976048 -9e-06 -2e-06 -21.226313 2.451693 -3.594005 0.0 -6e-06 -0.0 -1.362683 2.240799 -0.746325 -21.33494 0.584907 3.008323 -13.821229 -4e-06 -0.0 -23.887197 -0.249085 -0.839485 -57.745636 2.894751 -0.043202 -0.294025 1.679687 0.833257 -14.218224 0.093213 1.300579 -34.212086 -0.287572 0.967169 -20.033236 0.964534 1.212846 -0.0 -1e-06 -1e-06 -3.440391 0.788232 0.501655 -15.928203 -3.167316 2.999709 -6.338833 -1e-06 1e-06 -18.123466 3.64818 -4.905678 -4e-06 -1e-06 -2e-06 -4.592675 17.588545 7.122564 5.544153 56.868496 -27.125347 -6.437349 85.83651 -10.642488 -9.338109 6.764202 -7.663155 2.243544 -5.255041 -3.180159 14.282904 -0.826597 6.952509 -1e-06 -12.690611 -1e-06 16.221386 -18.23238 3.105218 1.665668 -1.955924 -2.878302 4.727804 -4.170588 4.993928 11.020535 2e-06 -2e-06 12.109062 -3.735719 -2.866787 -1e-06 -0.0 0.0 1.291987 -1.92855 -1.498092 14.800139 0.567468 3.865612 14.242584 -1.341739 -6.660663 19.631983 0.14392 -0.648245 50.821587 -2.31746 -6.012234 0.35303 -1.511151 -0.03194 20.222805 3.684309 2.316633 18.787289 3e-06 1e-06 10.751638 -0.479871 1.397908 -1e-06 0.0 0.0 3.273809 0.305947 -0.580109 21.486832 11.83038 2.266138 8.162935 2e-06 -1e-06 18.399103 -3.798987 -4.940581 3e-06 -1e-06 -1e-06 6.010486 12.484574 -45.043842 0.506991 1.054881 145.270508 -44.917854 -39.657059 59.777927 0.307511 -0.955053 2.25604 -1e-06 0.0 2e-06 -31.748526 -8.472634 -66.777328 3.28061 1.755063 74.137543 16.771914 -10.944581 -1.706032 -1.742743 0.696 -2.116992 1e-06 1e-06 -2e-06 
